<svg width="424" height="47" viewBox="0 0 424 47" fill="none" xmlns="http://www.w3.org/2000/svg">
<path d="M0 42.6094V0.483512H3.92853L19.5218 36.7468H18.9778L34.5106 0.483512H38.4391V42.6094H35.8403V3.44502H35.9611L20.4888 39.2248H17.9503L2.47799 3.44502H2.59887V42.6094H0Z" fill="#8DD5F4"/>
<path d="M49.4607 42.6094V0.483512H76.7791V2.84063H52.0596V20.1261H73.9989V22.4833H52.0596V40.2523H76.7791V42.6094H49.4607Z" fill="#8DD5F4"/>
<path d="M84.9922 42.6094V0.483512H88.0141L111.646 39.3457H111.223V0.483512H113.822V42.6094H110.739L87.1075 3.74721H87.591V42.6094H84.9922Z" fill="#8DD5F4"/>
<path d="M124.832 42.6094V0.483512H135.832C142.642 0.483512 147.9 2.35712 151.607 6.10433C155.314 9.81124 157.167 15.0694 157.167 21.8789C157.167 28.5674 155.334 33.7047 151.667 37.2908C148 40.8365 142.702 42.6094 135.772 42.6094H124.832ZM127.431 40.1919H135.53C139.64 40.1919 143.105 39.527 145.925 38.1974C148.746 36.8274 150.881 34.7926 152.332 32.093C153.782 29.3531 154.508 25.9283 154.508 21.8184C154.508 17.628 153.762 14.1427 152.271 11.3625C150.821 8.54203 148.706 6.42667 145.925 5.01643C143.145 3.60619 139.761 2.90107 135.772 2.90107H127.431V40.1919Z" fill="#8DD5F4"/>
<path d="M166.502 42.6094V0.483512H193.82V2.84063H169.101V20.1261H191.04V22.4833H169.101V40.2523H193.82V42.6094H166.502Z" fill="#8DD5F4"/>
<path d="M212.463 43.0929C208.555 43.0929 205.331 42.0655 202.793 40.0105C200.254 37.9556 198.683 35.1956 198.078 31.7304L200.617 31.126C201.141 34.2688 202.47 36.6663 204.606 38.3182C206.782 39.93 209.421 40.7358 212.523 40.7358C214.457 40.7358 216.17 40.3329 217.661 39.527C219.192 38.7212 220.401 37.6333 221.287 36.2633C222.173 34.8531 222.617 33.2817 222.617 31.5491C222.617 29.5748 222.113 27.9832 221.106 26.7744C220.098 25.5656 218.749 24.5583 217.056 23.7525C215.404 22.9466 213.611 22.1811 211.677 21.4558C209.622 20.6902 207.729 19.8441 205.996 18.9174C204.304 17.9906 202.954 16.8624 201.947 15.5328C200.939 14.1628 200.436 12.4303 200.436 10.335C200.436 8.36071 200.919 6.58784 201.886 5.01643C202.893 3.44502 204.284 2.21609 206.056 1.32966C207.829 0.443219 209.864 0 212.161 0C214.659 0 216.855 0.564096 218.749 1.69229C220.683 2.82048 222.234 4.45233 223.402 6.58784L221.347 7.91749C220.34 6.14462 219.071 4.77467 217.54 3.80765C216.049 2.84063 214.236 2.35712 212.1 2.35712C210.327 2.35712 208.756 2.6996 207.386 3.38458C206.016 4.06955 204.948 5.01643 204.183 6.2252C203.417 7.39369 203.034 8.74349 203.034 10.2746C203.034 11.9266 203.458 13.2966 204.304 14.3845C205.19 15.4321 206.399 16.3386 207.93 17.1042C209.461 17.8698 211.234 18.6353 213.249 19.4009C215.545 20.247 217.58 21.1738 219.353 22.1811C221.126 23.1481 222.536 24.3569 223.584 25.8074C224.672 27.2579 225.216 29.1114 225.216 31.3678C225.216 33.6242 224.651 35.6388 223.523 37.4117C222.435 39.1442 220.924 40.5343 218.99 41.5819C217.097 42.5893 214.921 43.0929 212.463 43.0929Z" fill="#8DD5F4"/>
<path d="M255.803 18.7941C254.771 18.7941 253.863 18.5401 253.078 18.0322C252.309 17.509 251.709 16.801 251.278 15.9083C250.847 15.0156 250.631 14.0152 250.631 12.907C250.631 11.7066 250.862 10.6677 251.324 9.79037C251.786 8.91309 252.409 8.23588 253.194 7.75876C253.979 7.28164 254.848 7.04308 255.803 7.04308C256.526 7.04308 257.172 7.18929 257.742 7.48172C258.311 7.75876 258.789 8.14354 259.173 8.63605C259.573 9.11317 259.851 9.65185 260.004 10.2521L259.45 10.6215V2.51813H261.39V18.6094H259.45V15.2157L260.097 15.4235C259.897 16.0853 259.597 16.6701 259.196 17.178C258.796 17.6859 258.311 18.0861 257.742 18.3785C257.172 18.6556 256.526 18.7941 255.803 18.7941ZM256.126 16.9934C256.818 16.9934 257.426 16.8241 257.95 16.4855C258.473 16.1315 258.881 15.6466 259.173 15.031C259.466 14.4154 259.612 13.7074 259.612 12.907C259.612 12.1067 259.466 11.3987 259.173 10.7831C258.881 10.1675 258.473 9.69033 257.95 9.35173C257.426 8.99774 256.818 8.82074 256.126 8.82074C255.433 8.82074 254.818 8.99774 254.279 9.35173C253.756 9.69033 253.34 10.1675 253.032 10.7831C252.74 11.3987 252.594 12.1067 252.594 12.907C252.594 13.7074 252.74 14.4154 253.032 15.031C253.34 15.6466 253.756 16.1315 254.279 16.4855C254.818 16.8241 255.433 16.9934 256.126 16.9934Z" fill="#8DD5F4"/>
<path d="M269.514 18.7941C268.621 18.7941 267.836 18.6479 267.159 18.3555C266.497 18.0476 265.943 17.6244 265.497 17.0857C265.066 16.547 264.735 15.9314 264.504 15.2388C264.289 14.5308 264.181 13.7843 264.181 12.9994C264.181 12.2145 264.289 11.468 264.504 10.76C264.72 10.0366 265.035 9.3979 265.451 8.84383C265.882 8.28975 266.42 7.85111 267.067 7.5279C267.713 7.20469 268.467 7.04308 269.329 7.04308C270.207 7.04308 270.961 7.19699 271.592 7.50481C272.238 7.79724 272.762 8.2051 273.162 8.72839C273.577 9.25169 273.885 9.83654 274.085 10.483C274.285 11.1294 274.385 11.7989 274.385 12.4915C274.385 12.5531 274.378 12.6993 274.362 12.9301C274.362 13.1456 274.347 13.338 274.316 13.5073H266.12C266.167 14.6154 266.49 15.4773 267.09 16.093C267.69 16.7086 268.506 17.0164 269.537 17.0164C270.199 17.0164 270.776 16.9087 271.269 16.6932C271.761 16.4778 272.223 16.1315 272.654 15.6543L274.016 16.8548C273.6 17.3012 273.162 17.6706 272.7 17.963C272.238 18.24 271.746 18.4478 271.222 18.5863C270.715 18.7248 270.145 18.7941 269.514 18.7941ZM272.446 12.5146C272.477 12.3914 272.492 12.2683 272.492 12.1452C272.508 12.0221 272.515 11.8989 272.515 11.7758C272.515 11.4064 272.446 11.037 272.308 10.6677C272.184 10.2983 271.992 9.96737 271.73 9.67494C271.484 9.36712 271.161 9.12856 270.761 8.95926C270.376 8.77457 269.914 8.68222 269.376 8.68222C268.714 8.68222 268.144 8.83613 267.667 9.14395C267.19 9.45177 266.821 9.85963 266.559 10.3675C266.297 10.8754 266.143 11.4372 266.097 12.0528H273.092L272.446 12.5146Z" fill="#8DD5F4"/>
<path d="M280.943 18.7941C280.173 18.7941 279.481 18.6787 278.865 18.4478C278.249 18.2169 277.718 17.9091 277.272 17.5243C276.841 17.1396 276.495 16.7317 276.233 16.3008L277.595 15.1464C277.888 15.7313 278.319 16.2161 278.888 16.6009C279.473 16.9703 280.166 17.155 280.966 17.155C281.689 17.155 282.266 17.001 282.697 16.6932C283.128 16.3854 283.344 15.9699 283.344 15.4466C283.344 15.0156 283.213 14.677 282.951 14.4308C282.69 14.1845 282.343 13.9844 281.912 13.8305C281.481 13.6766 281.012 13.5381 280.504 13.4149C280.073 13.3072 279.635 13.1764 279.188 13.0225C278.757 12.8686 278.365 12.6762 278.011 12.4453C277.657 12.2145 277.372 11.9143 277.157 11.5449C276.941 11.1756 276.833 10.7215 276.833 10.1828C276.833 9.24399 277.195 8.48983 277.918 7.92037C278.657 7.33551 279.619 7.04308 280.804 7.04308C281.666 7.04308 282.451 7.22777 283.159 7.59716C283.882 7.95115 284.444 8.48983 284.844 9.21321L283.598 10.1367C283.29 9.59798 282.882 9.21321 282.374 8.98234C281.882 8.73609 281.335 8.61296 280.735 8.61296C280.135 8.61296 279.635 8.73609 279.234 8.98234C278.834 9.2286 278.634 9.5672 278.634 9.99815C278.634 10.3214 278.726 10.583 278.911 10.7831C279.096 10.9832 279.365 11.1525 279.719 11.291C280.089 11.4295 280.535 11.5603 281.058 11.6835C281.535 11.7912 282.02 11.922 282.513 12.0759C283.005 12.2298 283.459 12.4299 283.875 12.6762C284.29 12.9224 284.621 13.2533 284.867 13.6689C285.129 14.0691 285.26 14.5924 285.26 15.2388C285.26 15.9468 285.083 16.5701 284.729 17.1088C284.375 17.6475 283.875 18.063 283.228 18.3555C282.582 18.6479 281.82 18.7941 280.943 18.7941Z" fill="#8DD5F4"/>
<path d="M292.826 18.7941C291.933 18.7941 291.148 18.6479 290.471 18.3555C289.809 18.0476 289.255 17.6244 288.809 17.0857C288.378 16.547 288.047 15.9314 287.816 15.2388C287.601 14.5308 287.493 13.7843 287.493 12.9994C287.493 12.2145 287.601 11.468 287.816 10.76C288.032 10.0366 288.347 9.3979 288.763 8.84383C289.194 8.28975 289.732 7.85111 290.379 7.5279C291.025 7.20469 291.779 7.04308 292.641 7.04308C293.519 7.04308 294.273 7.19699 294.904 7.50481C295.55 7.79724 296.073 8.2051 296.474 8.72839C296.889 9.25169 297.197 9.83654 297.397 10.483C297.597 11.1294 297.697 11.7989 297.697 12.4915C297.697 12.5531 297.69 12.6993 297.674 12.9301C297.674 13.1456 297.659 13.338 297.628 13.5073H289.432C289.478 14.6154 289.802 15.4773 290.402 16.093C291.002 16.7086 291.818 17.0164 292.849 17.0164C293.511 17.0164 294.088 16.9087 294.581 16.6932C295.073 16.4778 295.535 16.1315 295.966 15.6543L297.328 16.8548C296.912 17.3012 296.474 17.6706 296.012 17.963C295.55 18.24 295.058 18.4478 294.534 18.5863C294.026 18.7248 293.457 18.7941 292.826 18.7941ZM295.758 12.5146C295.789 12.3914 295.804 12.2683 295.804 12.1452C295.82 12.0221 295.827 11.8989 295.827 11.7758C295.827 11.4064 295.758 11.037 295.619 10.6677C295.496 10.2983 295.304 9.96737 295.042 9.67494C294.796 9.36712 294.473 9.12856 294.073 8.95926C293.688 8.77457 293.226 8.68222 292.687 8.68222C292.026 8.68222 291.456 8.83613 290.979 9.14395C290.502 9.45177 290.133 9.85963 289.871 10.3675C289.609 10.8754 289.455 11.4372 289.409 12.0528H296.404L295.758 12.5146Z" fill="#8DD5F4"/>
<path d="M300.492 18.6094V7.22777H302.454V9.65185L301.992 9.81346C302.208 9.2286 302.5 8.73609 302.87 8.33592C303.239 7.92037 303.685 7.60485 304.209 7.38938C304.732 7.15851 305.309 7.04308 305.94 7.04308C307.187 7.04308 308.164 7.41246 308.872 8.15123C309.58 8.87461 309.934 9.95198 309.934 11.3833V18.6094H307.972V12.099C307.972 10.9447 307.756 10.0982 307.325 9.55951C306.91 9.00543 306.271 8.72839 305.409 8.72839C304.778 8.72839 304.239 8.87461 303.793 9.16704C303.362 9.45947 303.031 9.9212 302.8 10.5522C302.569 11.1679 302.454 11.9605 302.454 12.9301V18.6094H300.492Z" fill="#8DD5F4"/>
<path d="M316.356 18.6094L311.693 7.22777H313.84L317.164 16.093L320.512 7.22777H322.636L317.995 18.6094H316.356Z" fill="#8DD5F4"/>
<path d="M329.557 18.7941C328.495 18.7941 327.541 18.5478 326.695 18.0553C325.863 17.5474 325.209 16.8471 324.732 15.9545C324.255 15.0618 324.017 14.046 324.017 12.907C324.017 11.7681 324.247 10.76 324.709 9.88272C325.186 8.99004 325.84 8.29745 326.672 7.80493C327.518 7.29703 328.48 7.04308 329.557 7.04308C330.635 7.04308 331.581 7.29703 332.397 7.80493C333.228 8.29745 333.882 8.99004 334.359 9.88272C334.836 10.76 335.075 11.7681 335.075 12.907C335.075 14.046 334.836 15.0618 334.359 15.9545C333.882 16.8317 333.228 17.5243 332.397 18.0322C331.566 18.5401 330.619 18.7941 329.557 18.7941ZM329.557 17.0626C330.281 17.0626 330.904 16.8933 331.427 16.5547C331.966 16.2007 332.382 15.7159 332.674 15.1003C332.966 14.4692 333.113 13.7382 333.113 12.907C333.113 12.0605 332.966 11.3295 332.674 10.7138C332.382 10.0828 331.966 9.59798 331.427 9.25938C330.904 8.92078 330.281 8.75148 329.557 8.75148C328.819 8.75148 328.18 8.92848 327.641 9.28247C327.102 9.62107 326.687 10.0982 326.394 10.7138C326.102 11.3295 325.956 12.0605 325.956 12.907C325.956 13.7382 326.102 14.4692 326.394 15.1003C326.687 15.7159 327.102 16.2007 327.641 16.5547C328.18 16.8933 328.819 17.0626 329.557 17.0626Z" fill="#8DD5F4"/>
<path d="M340.157 18.7941C339.465 18.7941 338.903 18.5786 338.472 18.1477C338.041 17.7167 337.826 17.0318 337.826 16.093V2.51813H339.765V15.7236C339.765 16.1699 339.857 16.4931 340.042 16.6932C340.227 16.8933 340.473 16.9934 340.781 16.9934C340.919 16.9934 341.073 16.978 341.242 16.9472C341.412 16.9164 341.589 16.8702 341.773 16.8087V18.4709C341.512 18.5786 341.235 18.6556 340.942 18.7018C340.65 18.7633 340.388 18.7941 340.157 18.7941Z" fill="#8DD5F4"/>
<path d="M347.514 18.6094L342.85 7.22777H344.997L348.322 16.093L351.669 7.22777H353.793L349.153 18.6094H347.514Z" fill="#8DD5F4"/>
<path d="M355.998 18.6094V7.22777H357.937V18.6094H355.998ZM355.813 5.17308V2.51813H358.122V5.17308H355.813Z" fill="#8DD5F4"/>
<path d="M361.229 18.6094V7.22777H363.191V10.1598H362.799C362.937 9.62107 363.122 9.15934 363.353 8.77457C363.599 8.3744 363.884 8.05119 364.207 7.80493C364.53 7.54329 364.877 7.3509 365.246 7.22777C365.631 7.10464 366.031 7.04308 366.446 7.04308C367.139 7.04308 367.747 7.1739 368.27 7.43555C368.794 7.6972 369.225 8.09736 369.563 8.63605C369.902 9.15934 370.133 9.82885 370.256 10.6446L369.148 10.7138C369.378 9.92889 369.671 9.26708 370.025 8.72839C370.379 8.17432 370.817 7.75876 371.341 7.48172C371.879 7.18929 372.518 7.04308 373.257 7.04308C374.196 7.04308 374.95 7.25855 375.519 7.6895C376.089 8.10506 376.504 8.66683 376.766 9.37482C377.028 10.0674 377.159 10.837 377.159 11.6835V18.6094H375.219V12.1452C375.219 11.4372 375.135 10.8293 374.965 10.3214C374.811 9.81346 374.557 9.42099 374.203 9.14395C373.865 8.86691 373.403 8.72839 372.818 8.72839C372.264 8.72839 371.787 8.86691 371.387 9.14395C371.002 9.42099 370.702 9.84424 370.487 10.4137C370.286 10.9678 370.186 11.6604 370.186 12.4915V18.6094H368.224V11.9836C368.224 10.8908 368.024 10.0751 367.624 9.53642C367.224 8.99774 366.639 8.72839 365.869 8.72839C365.315 8.72839 364.838 8.87461 364.438 9.16704C364.038 9.44407 363.73 9.85963 363.514 10.4137C363.299 10.9678 363.191 11.6604 363.191 12.4915V18.6094H361.229Z" fill="#8DD5F4"/>
<path d="M385.149 18.7941C384.257 18.7941 383.472 18.6479 382.795 18.3555C382.133 18.0476 381.579 17.6244 381.132 17.0857C380.701 16.547 380.37 15.9314 380.14 15.2388C379.924 14.5308 379.816 13.7843 379.816 12.9994C379.816 12.2145 379.924 11.468 380.14 10.76C380.355 10.0366 380.671 9.3979 381.086 8.84383C381.517 8.28975 382.056 7.85111 382.702 7.5279C383.349 7.20469 384.103 7.04308 384.965 7.04308C385.842 7.04308 386.596 7.19699 387.227 7.50481C387.874 7.79724 388.397 8.2051 388.797 8.72839C389.213 9.25169 389.52 9.83654 389.72 10.483C389.921 11.1294 390.021 11.7989 390.021 12.4915C390.021 12.5531 390.013 12.6993 389.998 12.9301C389.998 13.1456 389.982 13.338 389.951 13.5073H381.756C381.802 14.6154 382.125 15.4773 382.725 16.093C383.326 16.7086 384.141 17.0164 385.172 17.0164C385.834 17.0164 386.411 16.9087 386.904 16.6932C387.396 16.4778 387.858 16.1315 388.289 15.6543L389.651 16.8548C389.236 17.3012 388.797 17.6706 388.335 17.963C387.874 18.24 387.381 18.4478 386.858 18.5863C386.35 18.7248 385.78 18.7941 385.149 18.7941ZM388.081 12.5146C388.112 12.3914 388.128 12.2683 388.128 12.1452C388.143 12.0221 388.151 11.8989 388.151 11.7758C388.151 11.4064 388.081 11.037 387.943 10.6677C387.82 10.2983 387.627 9.96737 387.366 9.67494C387.119 9.36712 386.796 9.12856 386.396 8.95926C386.011 8.77457 385.55 8.68222 385.011 8.68222C384.349 8.68222 383.78 8.83613 383.302 9.14395C382.825 9.45177 382.456 9.85963 382.194 10.3675C381.933 10.8754 381.779 11.4372 381.733 12.0528H388.728L388.081 12.5146Z" fill="#8DD5F4"/>
<path d="M392.815 18.6094V7.22777H394.777V9.65185L394.316 9.81346C394.531 9.2286 394.824 8.73609 395.193 8.33592C395.562 7.92037 396.009 7.60485 396.532 7.38938C397.055 7.15851 397.632 7.04308 398.263 7.04308C399.51 7.04308 400.487 7.41246 401.195 8.15123C401.903 8.87461 402.257 9.95198 402.257 11.3833V18.6094H400.295V12.099C400.295 10.9447 400.08 10.0982 399.649 9.55951C399.233 9.00543 398.594 8.72839 397.732 8.72839C397.101 8.72839 396.563 8.87461 396.116 9.16704C395.685 9.45947 395.354 9.9212 395.124 10.5522C394.893 11.1679 394.777 11.9605 394.777 12.9301V18.6094H392.815Z" fill="#8DD5F4"/>
<path d="M409.227 18.7941C408.688 18.7941 408.195 18.6941 407.749 18.494C407.318 18.2785 406.98 17.9399 406.733 17.4782C406.487 17.0164 406.364 16.4239 406.364 15.7005V4.18036L408.349 3.07221V15.1926C408.349 15.8236 408.449 16.3162 408.649 16.6701C408.85 17.0087 409.211 17.178 409.734 17.178C409.888 17.178 410.073 17.1627 410.289 17.1319C410.504 17.0857 410.735 17.0318 410.981 16.9703V18.494C410.689 18.6017 410.389 18.6787 410.081 18.7248C409.788 18.771 409.504 18.7941 409.227 18.7941ZM404.009 8.75148V7.22777H410.981V8.75148H404.009Z" fill="#8DD5F4"/>
<path d="M418.206 18.7941C417.144 18.7941 416.19 18.5478 415.343 18.0553C414.512 17.5474 413.858 16.8471 413.381 15.9545C412.904 15.0618 412.665 14.046 412.665 12.907C412.665 11.7681 412.896 10.76 413.358 9.88272C413.835 8.99004 414.489 8.29745 415.32 7.80493C416.166 7.29703 417.128 7.04308 418.206 7.04308C419.283 7.04308 420.23 7.29703 421.045 7.80493C421.877 8.29745 422.531 8.99004 423.008 9.88272C423.485 10.76 423.723 11.7681 423.723 12.907C423.723 14.046 423.485 15.0618 423.008 15.9545C422.531 16.8317 421.877 17.5243 421.045 18.0322C420.214 18.5401 419.268 18.7941 418.206 18.7941ZM418.206 17.0626C418.929 17.0626 419.553 16.8933 420.076 16.5547C420.614 16.2007 421.03 15.7159 421.322 15.1003C421.615 14.4692 421.761 13.7382 421.761 12.907C421.761 12.0605 421.615 11.3295 421.322 10.7138C421.03 10.0828 420.614 9.59798 420.076 9.25938C419.553 8.92078 418.929 8.75148 418.206 8.75148C417.467 8.75148 416.828 8.92848 416.29 9.28247C415.751 9.62107 415.335 10.0982 415.043 10.7138C414.751 11.3295 414.604 12.0605 414.604 12.907C414.604 13.7382 414.751 14.4692 415.043 15.1003C415.335 15.7159 415.751 16.2007 416.29 16.5547C416.828 16.8933 417.467 17.0626 418.206 17.0626Z" fill="#8DD5F4"/>
<path d="M255.872 41.8403C254.887 41.8403 254.01 41.6864 253.24 41.3785C252.471 41.0707 251.863 40.6167 251.416 40.0164C250.985 39.4162 250.77 38.6928 250.77 37.8463C250.77 37.1537 250.908 36.5458 251.185 36.0225C251.478 35.4838 251.855 35.0144 252.317 34.6142C252.778 34.1986 253.286 33.8293 253.84 33.5061C254.41 33.1675 254.972 32.8442 255.526 32.5364C256.172 32.1824 256.765 31.8284 257.303 31.4744C257.842 31.1051 258.273 30.7049 258.596 30.2739C258.919 29.843 259.081 29.3428 259.081 28.7733C259.081 28.2808 258.912 27.8499 258.573 27.4805C258.25 27.0957 257.727 26.9033 257.003 26.9033C256.311 26.9033 255.741 27.1111 255.295 27.5267C254.848 27.9268 254.625 28.4578 254.625 29.1196C254.625 29.5198 254.71 29.9046 254.879 30.2739C255.049 30.6433 255.256 30.9973 255.503 31.3359C255.764 31.6745 256.018 31.9977 256.264 32.3056L254.718 33.1136C254.425 32.7442 254.125 32.3594 253.817 31.9593C253.509 31.5591 253.255 31.1205 253.055 30.6433C252.855 30.1662 252.755 29.6429 252.755 29.0734C252.755 28.3193 252.94 27.6652 253.309 27.1111C253.694 26.557 254.21 26.1261 254.856 25.8183C255.503 25.5104 256.211 25.3565 256.98 25.3565C258.211 25.3565 259.173 25.672 259.866 26.3031C260.558 26.9187 260.905 27.7344 260.905 28.7502C260.905 29.6121 260.682 30.3586 260.235 30.9896C259.789 31.6053 259.219 32.1516 258.527 32.6288C257.85 33.0905 257.149 33.5291 256.426 33.9447C255.81 34.2987 255.226 34.6527 254.671 35.0067C254.117 35.3607 253.663 35.7531 253.309 36.1841C252.955 36.615 252.778 37.1383 252.778 37.754C252.778 38.4927 253.055 39.0776 253.609 39.5085C254.179 39.9395 254.933 40.155 255.872 40.155C257.565 40.155 258.942 39.5547 260.004 38.3542C261.066 37.1537 261.79 35.4684 262.175 33.2983L263.906 33.5522C263.629 35.3684 263.121 36.8921 262.382 38.1233C261.644 39.3546 260.72 40.2858 259.612 40.9168C258.504 41.5325 257.257 41.8403 255.872 41.8403ZM262.798 42.3943L255.618 33.9909L257.165 33.0443L264.183 41.1708L262.798 42.3943Z" fill="#8DD5F4"/>
<path d="M277.627 41.7941C276.595 41.7941 275.687 41.5401 274.902 41.0322C274.133 40.509 273.533 39.801 273.102 38.9083C272.671 38.0156 272.455 37.0152 272.455 35.907C272.455 34.7066 272.686 33.6677 273.148 32.7904C273.61 31.9131 274.233 31.2359 275.018 30.7588C275.803 30.2816 276.672 30.0431 277.627 30.0431C278.35 30.0431 278.996 30.1893 279.566 30.4817C280.135 30.7588 280.612 31.1435 280.997 31.636C281.397 32.1132 281.674 32.6519 281.828 33.2521L281.274 33.6215V25.5181H283.214V41.6094H281.274V38.2157L281.921 38.4235C281.721 39.0853 281.42 39.6701 281.02 40.178C280.62 40.6859 280.135 41.0861 279.566 41.3785C278.996 41.6556 278.35 41.7941 277.627 41.7941ZM277.95 39.9934C278.642 39.9934 279.25 39.8241 279.774 39.4855C280.297 39.1315 280.705 38.6466 280.997 38.031C281.29 37.4154 281.436 36.7074 281.436 35.907C281.436 35.1067 281.29 34.3987 280.997 33.7831C280.705 33.1675 280.297 32.6903 279.774 32.3517C279.25 31.9977 278.642 31.8207 277.95 31.8207C277.257 31.8207 276.642 31.9977 276.103 32.3517C275.58 32.6903 275.164 33.1675 274.856 33.7831C274.564 34.3987 274.418 35.1067 274.418 35.907C274.418 36.7074 274.564 37.4154 274.856 38.031C275.164 38.6466 275.58 39.1315 276.103 39.4855C276.642 39.8241 277.257 39.9934 277.95 39.9934Z" fill="#8DD5F4"/>
<path d="M291.338 41.7941C290.445 41.7941 289.66 41.6479 288.983 41.3555C288.321 41.0476 287.767 40.6244 287.321 40.0857C286.89 39.547 286.559 38.9314 286.328 38.2388C286.113 37.5308 286.005 36.7843 286.005 35.9994C286.005 35.2145 286.113 34.468 286.328 33.76C286.544 33.0366 286.859 32.3979 287.275 31.8438C287.706 31.2898 288.244 30.8511 288.891 30.5279C289.537 30.2047 290.291 30.0431 291.153 30.0431C292.031 30.0431 292.785 30.197 293.416 30.5048C294.062 30.7972 294.585 31.2051 294.986 31.7284C295.401 32.2517 295.709 32.8365 295.909 33.483C296.109 34.1294 296.209 34.7989 296.209 35.4915C296.209 35.5531 296.202 35.6993 296.186 35.9301C296.186 36.1456 296.171 36.338 296.14 36.5073H287.944C287.99 37.6154 288.314 38.4773 288.914 39.093C289.514 39.7086 290.33 40.0164 291.361 40.0164C292.023 40.0164 292.6 39.9087 293.093 39.6932C293.585 39.4778 294.047 39.1315 294.478 38.6543L295.84 39.8548C295.424 40.3012 294.986 40.6706 294.524 40.963C294.062 41.24 293.57 41.4478 293.046 41.5863C292.538 41.7248 291.969 41.7941 291.338 41.7941ZM294.27 35.5146C294.301 35.3914 294.316 35.2683 294.316 35.1452C294.332 35.0221 294.339 34.8989 294.339 34.7758C294.339 34.4064 294.27 34.037 294.131 33.6677C294.008 33.2983 293.816 32.9674 293.554 32.6749C293.308 32.3671 292.985 32.1286 292.585 31.9593C292.2 31.7746 291.738 31.6822 291.199 31.6822C290.538 31.6822 289.968 31.8361 289.491 32.144C289.014 32.4518 288.645 32.8596 288.383 33.3675C288.121 33.8754 287.967 34.4372 287.921 35.0528H294.916L294.27 35.5146Z" fill="#8DD5F4"/>
<path d="M302.767 41.7941C301.997 41.7941 301.305 41.6787 300.689 41.4478C300.073 41.2169 299.542 40.9091 299.096 40.5243C298.665 40.1396 298.319 39.7317 298.057 39.3008L299.419 38.1464C299.712 38.7313 300.143 39.2161 300.712 39.6009C301.297 39.9703 301.989 40.155 302.79 40.155C303.513 40.155 304.09 40.001 304.521 39.6932C304.952 39.3854 305.168 38.9699 305.168 38.4466C305.168 38.0156 305.037 37.677 304.775 37.4308C304.514 37.1845 304.167 36.9844 303.736 36.8305C303.305 36.6766 302.836 36.5381 302.328 36.415C301.897 36.3072 301.458 36.1764 301.012 36.0225C300.581 35.8686 300.189 35.6762 299.835 35.4453C299.481 35.2145 299.196 34.9143 298.981 34.5449C298.765 34.1756 298.657 33.7215 298.657 33.1828C298.657 32.244 299.019 31.4898 299.742 30.9204C300.481 30.3355 301.443 30.0431 302.628 30.0431C303.49 30.0431 304.275 30.2278 304.983 30.5972C305.706 30.9511 306.268 31.4898 306.668 32.2132L305.422 33.1367C305.114 32.598 304.706 32.2132 304.198 31.9823C303.706 31.7361 303.159 31.613 302.559 31.613C301.959 31.613 301.458 31.7361 301.058 31.9823C300.658 32.2286 300.458 32.5672 300.458 32.9981C300.458 33.3214 300.55 33.583 300.735 33.7831C300.92 33.9832 301.189 34.1525 301.543 34.291C301.913 34.4295 302.359 34.5603 302.882 34.6835C303.359 34.7912 303.844 34.922 304.337 35.0759C304.829 35.2298 305.283 35.4299 305.699 35.6762C306.114 35.9224 306.445 36.2533 306.691 36.6689C306.953 37.0691 307.084 37.5924 307.084 38.2388C307.084 38.9468 306.907 39.5701 306.553 40.1088C306.199 40.6475 305.699 41.063 305.052 41.3555C304.406 41.6479 303.644 41.7941 302.767 41.7941Z" fill="#8DD5F4"/>
<path d="M309.825 41.6094V30.2278H311.764V41.6094H309.825ZM309.64 28.1731V25.5181H311.949V28.1731H309.64Z" fill="#8DD5F4"/>
<path d="M319.65 46.5268C318.019 46.5268 316.726 46.2267 315.772 45.6265C314.817 45.0262 314.34 44.1951 314.34 43.1331C314.34 43.0562 314.34 42.9561 314.34 42.833C314.356 42.7099 314.379 42.5944 314.41 42.4867L317.249 40.432L317.919 40.8937L316.303 42.9023C316.287 42.9638 316.28 43.0177 316.28 43.0639C316.28 43.11 316.28 43.1562 316.28 43.2024C316.28 43.818 316.603 44.2721 317.249 44.5645C317.896 44.8723 318.696 45.0262 319.65 45.0262C320.497 45.0262 321.197 44.9031 321.751 44.6568C322.305 44.426 322.582 44.0412 322.582 43.5025C322.582 43.1947 322.49 42.9407 322.305 42.7406C322.136 42.556 321.882 42.4097 321.543 42.302C321.22 42.1943 320.835 42.1019 320.389 42.025C319.943 41.948 319.442 41.8711 318.888 41.7941C318.196 41.6864 317.519 41.5325 316.857 41.3324C316.21 41.1323 315.672 40.8399 315.241 40.4551C314.825 40.0703 314.617 39.5624 314.617 38.9314C314.617 38.3927 314.802 37.9002 315.171 37.4538C315.556 37.0075 316.056 36.6381 316.672 36.3457L317.919 37.1537C317.395 37.2768 317.026 37.4692 316.811 37.7309C316.595 37.9771 316.487 38.2773 316.487 38.6313C316.487 38.9237 316.587 39.1622 316.787 39.3469C317.003 39.5316 317.303 39.6778 317.688 39.7856C318.088 39.8779 318.565 39.9626 319.119 40.0395C319.858 40.1473 320.551 40.2627 321.197 40.3858C321.843 40.509 322.413 40.6859 322.905 40.9168C323.413 41.1323 323.806 41.4247 324.083 41.7941C324.36 42.1789 324.498 42.6714 324.498 43.2716C324.498 44.3182 324.067 45.1186 323.205 45.6726C322.344 46.2421 321.158 46.5268 319.65 46.5268ZM319.373 38.0541C318.496 38.0541 317.719 37.8848 317.041 37.5462C316.364 37.2076 315.833 36.7382 315.448 36.1379C315.079 35.5377 314.894 34.8528 314.894 34.0832C314.894 33.2829 315.087 32.5826 315.471 31.9823C315.872 31.3667 316.403 30.8896 317.064 30.551C317.742 30.2124 318.488 30.0431 319.304 30.0431C320.104 30.0431 320.835 30.2124 321.497 30.551C322.159 30.8896 322.69 31.3667 323.09 31.9823C323.49 32.598 323.69 33.3214 323.69 34.1525C323.69 34.9374 323.506 35.6223 323.136 36.2072C322.767 36.792 322.259 37.2461 321.612 37.5693C320.966 37.8925 320.22 38.0541 319.373 38.0541ZM319.327 36.4611C320.096 36.4611 320.689 36.2303 321.105 35.7685C321.536 35.2914 321.751 34.7142 321.751 34.037C321.751 33.3137 321.528 32.7288 321.082 32.2825C320.635 31.8361 320.05 31.613 319.327 31.613C318.588 31.613 317.988 31.8438 317.526 32.3056C317.064 32.7519 316.834 33.3214 316.834 34.014C316.834 34.7065 317.057 35.2914 317.503 35.7685C317.949 36.2303 318.557 36.4611 319.327 36.4611ZM322.952 32.3517L321.543 31.4052L323.944 29.4197L324.937 30.6433L322.952 32.3517Z" fill="#8DD5F4"/>
<path d="M326.915 41.6094V30.2278H328.877V32.6519L328.415 32.8135C328.631 32.2286 328.923 31.7361 329.293 31.3359C329.662 30.9204 330.108 30.6049 330.632 30.3894C331.155 30.1585 331.732 30.0431 332.363 30.0431C333.61 30.0431 334.587 30.4125 335.295 31.1512C336.003 31.8746 336.357 32.952 336.357 34.3833V41.6094H334.395V35.099C334.395 33.9447 334.179 33.0982 333.748 32.5595C333.333 32.0054 332.694 31.7284 331.832 31.7284C331.201 31.7284 330.663 31.8746 330.216 32.167C329.785 32.4595 329.454 32.9212 329.223 33.5522C328.993 34.1679 328.877 34.9605 328.877 35.9301V41.6094H326.915Z" fill="#8DD5F4"/>
<path d="M350.132 46.5268C348.5 46.5268 347.207 46.2267 346.253 45.6265C345.299 45.0262 344.822 44.1951 344.822 43.1331C344.822 43.0562 344.822 42.9561 344.822 42.833C344.837 42.7099 344.86 42.5944 344.891 42.4867L347.73 40.432L348.4 40.8937L346.784 42.9023C346.769 42.9638 346.761 43.0177 346.761 43.0639C346.761 43.11 346.761 43.1562 346.761 43.2024C346.761 43.818 347.084 44.2721 347.73 44.5645C348.377 44.8723 349.177 45.0262 350.132 45.0262C350.978 45.0262 351.678 44.9031 352.232 44.6568C352.786 44.426 353.063 44.0412 353.063 43.5025C353.063 43.1947 352.971 42.9407 352.786 42.7406C352.617 42.556 352.363 42.4097 352.025 42.302C351.701 42.1943 351.317 42.1019 350.87 42.025C350.424 41.948 349.924 41.8711 349.37 41.7941C348.677 41.6864 348 41.5325 347.338 41.3324C346.692 41.1323 346.153 40.8399 345.722 40.4551C345.306 40.0703 345.099 39.5624 345.099 38.9314C345.099 38.3927 345.283 37.9002 345.653 37.4538C346.038 37.0075 346.538 36.6381 347.153 36.3457L348.4 37.1537C347.877 37.2768 347.507 37.4692 347.292 37.7309C347.076 37.9771 346.969 38.2773 346.969 38.6313C346.969 38.9237 347.069 39.1622 347.269 39.3469C347.484 39.5316 347.784 39.6778 348.169 39.7856C348.569 39.8779 349.046 39.9626 349.601 40.0395C350.339 40.1473 351.032 40.2627 351.678 40.3858C352.325 40.509 352.894 40.6859 353.387 40.9168C353.895 41.1323 354.287 41.4247 354.564 41.7941C354.841 42.1789 354.98 42.6714 354.98 43.2716C354.98 44.3182 354.549 45.1186 353.687 45.6726C352.825 46.2421 351.64 46.5268 350.132 46.5268ZM349.854 38.0541C348.977 38.0541 348.2 37.8848 347.523 37.5462C346.846 37.2076 346.315 36.7382 345.93 36.1379C345.56 35.5377 345.376 34.8528 345.376 34.0832C345.376 33.2829 345.568 32.5826 345.953 31.9823C346.353 31.3667 346.884 30.8896 347.546 30.551C348.223 30.2124 348.969 30.0431 349.785 30.0431C350.586 30.0431 351.317 30.2124 351.978 30.551C352.64 30.8896 353.171 31.3667 353.571 31.9823C353.972 32.598 354.172 33.3214 354.172 34.1525C354.172 34.9374 353.987 35.6223 353.618 36.2072C353.248 36.792 352.74 37.2461 352.094 37.5693C351.447 37.8925 350.701 38.0541 349.854 38.0541ZM349.808 36.4611C350.578 36.4611 351.17 36.2303 351.586 35.7685C352.017 35.2914 352.232 34.7142 352.232 34.037C352.232 33.3137 352.009 32.7288 351.563 32.2825C351.117 31.8361 350.532 31.613 349.808 31.613C349.07 31.613 348.469 31.8438 348.008 32.3056C347.546 32.7519 347.315 33.3214 347.315 34.014C347.315 34.7065 347.538 35.2914 347.984 35.7685C348.431 36.2303 349.039 36.4611 349.808 36.4611ZM353.433 32.3517L352.025 31.4052L354.426 29.4197L355.418 30.6433L353.433 32.3517Z" fill="#8DD5F4"/>
<path d="M357.396 41.6094V30.2278H359.359V33.2752L358.851 33.3906C358.958 32.7134 359.212 32.1286 359.612 31.636C360.028 31.1281 360.505 30.7357 361.044 30.4586C361.598 30.1816 362.137 30.0431 362.66 30.0431C363.014 30.0431 363.352 30.0816 363.676 30.1585C363.999 30.2355 364.33 30.3663 364.668 30.551L363.699 32.3056C363.514 32.2132 363.291 32.1363 363.029 32.0747C362.783 32.0131 362.544 31.9823 362.314 31.9823C361.944 31.9823 361.575 32.0516 361.205 32.1901C360.851 32.3286 360.528 32.5441 360.236 32.8365C359.943 33.129 359.72 33.5214 359.566 34.014C359.505 34.2294 359.451 34.5142 359.405 34.8682C359.374 35.2068 359.359 35.6762 359.359 36.2764V41.6094H357.396Z" fill="#8DD5F4"/>
<path d="M373.985 41.6094L373.846 39.3238V34.4757C373.846 33.5984 373.6 32.9212 373.107 32.4441C372.63 31.967 371.914 31.7284 370.96 31.7284C370.345 31.7284 369.767 31.8592 369.229 32.1209C368.69 32.3671 368.167 32.7904 367.659 33.3906L366.251 32.1901C366.882 31.4514 367.605 30.9127 368.421 30.5741C369.236 30.2201 370.129 30.0431 371.099 30.0431C372.592 30.0431 373.746 30.4279 374.562 31.1974C375.377 31.967 375.785 33.0597 375.785 34.4757V41.6094H373.985ZM370.221 41.7941C369.36 41.7941 368.605 41.6479 367.959 41.3555C367.328 41.0476 366.835 40.6244 366.481 40.0857C366.143 39.547 365.974 38.9237 365.974 38.2157C365.974 37.5847 366.097 37.0537 366.343 36.6227C366.605 36.1764 366.935 35.8301 367.336 35.5838C367.736 35.3222 368.19 35.1452 368.698 35.0528C369.221 34.9451 369.767 34.8912 370.337 34.8912H374.031V36.3688H370.614C370.275 36.3688 369.921 36.3996 369.552 36.4611C369.183 36.5227 368.859 36.6535 368.582 36.8536C368.382 37.0075 368.221 37.1999 368.097 37.4308C367.99 37.6616 367.936 37.931 367.936 38.2388C367.936 38.839 368.159 39.3162 368.605 39.6701C369.052 40.0241 369.652 40.2011 370.406 40.2011C371.037 40.2011 371.607 40.0549 372.115 39.7625C372.638 39.4701 373.053 39.0699 373.361 38.562C373.684 38.0387 373.846 37.4538 373.846 36.8074L374.654 37.6385C374.562 38.4543 374.315 39.1776 373.915 39.8087C373.515 40.4397 372.999 40.9322 372.368 41.2862C371.753 41.6248 371.037 41.7941 370.221 41.7941ZM370.429 28.7733L372.946 25.5181H375.047L371.884 28.7733H370.429Z" fill="#8DD5F4"/>
<path d="M379.526 41.6094V31.7515H377.541V30.2278H379.526V29.3274C379.526 28.4347 379.719 27.696 380.103 27.1111C380.504 26.5108 381.027 26.0645 381.673 25.7721C382.335 25.4797 383.051 25.3334 383.82 25.3334C384.621 25.3334 385.321 25.4258 385.921 25.6105C386.521 25.7952 387.083 26.0645 387.606 26.4185L386.683 27.8037C386.298 27.5113 385.875 27.2958 385.413 27.1573C384.952 27.0034 384.451 26.9264 383.913 26.9264C383.112 26.9264 382.504 27.1342 382.089 27.5497C381.673 27.9499 381.465 28.5963 381.465 29.489V30.2278H386.337V31.7515H381.465V41.6094H379.526ZM385.644 41.6094V30.2278H387.583V41.6094H385.644Z" fill="#8DD5F4"/>
<path d="M395.451 41.7941C394.604 41.7941 393.85 41.6402 393.189 41.3324C392.542 41.0246 391.996 40.6013 391.549 40.0626C391.103 39.5085 390.764 38.8775 390.534 38.1695C390.303 37.4615 390.187 36.7074 390.187 35.907C390.187 35.1221 390.303 34.3756 390.534 33.6677C390.764 32.9597 391.103 32.3363 391.549 31.7977C391.996 31.2436 392.542 30.8126 393.189 30.5048C393.85 30.197 394.604 30.0431 395.451 30.0431C396.528 30.0431 397.467 30.3047 398.268 30.828C399.083 31.3513 399.684 32.1516 400.068 33.229L398.337 33.8985C398.121 33.2521 397.775 32.7288 397.298 32.3286C396.821 31.9285 396.205 31.7284 395.451 31.7284C394.697 31.7284 394.074 31.9285 393.581 32.3286C393.088 32.7288 392.719 33.2444 392.473 33.8754C392.242 34.5065 392.127 35.1837 392.127 35.907C392.127 36.6304 392.242 37.3153 392.473 37.9617C392.719 38.5928 393.088 39.1084 393.581 39.5085C394.074 39.8933 394.697 40.0857 395.451 40.0857C396.205 40.0857 396.821 39.8933 397.298 39.5085C397.775 39.1084 398.121 38.5774 398.337 37.9156L400.068 38.5851C399.684 39.6624 399.083 40.4705 398.268 41.0092C397.467 41.5325 396.528 41.7941 395.451 41.7941Z" fill="#8DD5F4"/>
<path d="M407.677 41.7941C406.615 41.7941 405.661 41.5478 404.814 41.0553C403.983 40.5474 403.329 39.8471 402.852 38.9545C402.375 38.0618 402.136 37.046 402.136 35.907C402.136 34.7681 402.367 33.76 402.829 32.8827C403.306 31.99 403.96 31.2974 404.791 30.8049C405.638 30.297 406.6 30.0431 407.677 30.0431C408.754 30.0431 409.701 30.297 410.517 30.8049C411.348 31.2974 412.002 31.99 412.479 32.8827C412.956 33.76 413.195 34.7681 413.195 35.907C413.195 37.046 412.956 38.0618 412.479 38.9545C412.002 39.8318 411.348 40.5243 410.517 41.0322C409.686 41.5401 408.739 41.7941 407.677 41.7941ZM407.677 40.0626C408.4 40.0626 409.024 39.8933 409.547 39.5547C410.086 39.2007 410.501 38.7159 410.794 38.1003C411.086 37.4692 411.232 36.7382 411.232 35.907C411.232 35.0605 411.086 34.3295 410.794 33.7138C410.501 33.0828 410.086 32.598 409.547 32.2594C409.024 31.9208 408.4 31.7515 407.677 31.7515C406.938 31.7515 406.3 31.9285 405.761 32.2825C405.222 32.6211 404.807 33.0982 404.514 33.7138C404.222 34.3295 404.076 35.0605 404.076 35.907C404.076 36.7382 404.222 37.4692 404.514 38.1003C404.807 38.7159 405.222 39.2007 405.761 39.5547C406.3 39.8933 406.938 40.0626 407.677 40.0626Z" fill="#8DD5F4"/>
</svg>
