<svg width="973" height="189" viewBox="0 0 973 189" fill="none" xmlns="http://www.w3.org/2000/svg">
<path d="M31 134L61.9267 103.196L81 84L0 2.99999V53.0927L30.9633 84.056L0 115.019V188.78H31V134Z" fill="#000033"/>
<path d="M126.963 188.78L96.0625 158.026L96 33.9629L126.922 3.06249L126.963 2.99999V188.78Z" fill="#000033"/>
<path d="M66.9629 188.78L36 158V34L66.9219 3.06249L66.9629 2.99999V188.78ZM38 34.791L38.0615 157.193L64.9629 183.967V7.84765L38 34.791Z" fill="#000033"/>
<path d="M219.707 71.8111V3.65185H238.873C246.045 3.65185 251.553 5.28167 255.4 8.54132C259.311 11.801 261.267 16.5275 261.267 22.7208C261.267 28.8489 259.311 33.5754 255.4 36.9003C251.553 40.2251 246.045 41.8875 238.873 41.8875H226.063V71.8111H219.707ZM226.063 36.2157H238.189C243.404 36.2157 247.479 35.1074 250.412 32.8909C253.346 30.6091 254.813 27.2191 254.813 22.7208C254.813 18.3529 253.379 15.0606 250.51 12.8441C247.642 10.5623 243.535 9.42142 238.189 9.42142H226.063V36.2157Z" fill="#000033"/>
<path d="M270.435 71.8111L295.762 3.65182H301.141L326.37 71.8111H319.427L298.5 12.5507L277.573 71.8111H270.435ZM282.952 54.3067L285.005 48.5372H311.898L314.049 54.3067H282.952Z" fill="#000033"/>
<path d="M359.79 72.3C351.967 72.3 345.969 70.116 341.797 65.7481C337.624 61.3802 335.538 55.0239 335.538 46.6792V3.16288H341.894V45.9946C341.894 50.4278 342.514 54.1764 343.752 57.2404C344.991 60.2393 346.914 62.5211 349.522 64.0857C352.195 65.5851 355.618 66.3348 359.79 66.3348C363.897 66.3348 367.287 65.5525 369.96 63.9879C372.633 62.3581 374.621 60.0437 375.925 57.0448C377.229 53.9808 377.881 50.2322 377.881 45.7991V3.16288H384.139V46.1902C384.139 54.6653 382.053 61.152 377.881 65.6503C373.709 70.0834 367.678 72.3 359.79 72.3Z" fill="#000033"/>
<path d="M393.307 71.8111V3.65182H399.664V66.0415H431.054V71.8111H393.307Z" fill="#000033"/>
<path d="M471.123 72.789C464.995 72.789 459.584 71.3547 454.89 68.4862C450.261 65.5525 446.643 61.478 444.036 56.2625C441.493 50.9819 440.222 44.8212 440.222 37.7803C440.222 30.7395 441.493 24.5788 444.036 19.2981C446.643 14.0175 450.261 9.94294 454.89 7.07445C459.584 4.14077 464.995 2.67393 471.123 2.67393C477.447 2.67393 482.923 4.14077 487.552 7.07445C492.246 9.94294 495.864 14.0175 498.406 19.2981C501.014 24.5788 502.318 30.7395 502.318 37.7803C502.318 44.8212 501.014 50.9819 498.406 56.2625C495.799 61.478 492.148 65.5525 487.454 68.4862C482.825 71.3547 477.382 72.789 471.123 72.789ZM471.123 66.6282C476.208 66.6282 480.576 65.4547 484.227 63.1078C487.943 60.7609 490.811 57.436 492.832 53.1333C494.853 48.7654 495.864 43.6477 495.864 37.7803C495.864 31.8478 494.853 26.7301 492.832 22.4274C490.811 18.0595 487.943 14.702 484.227 12.3551C480.576 10.0081 476.208 8.83466 471.123 8.83466C466.169 8.83466 461.833 10.0081 458.117 12.3551C454.466 14.702 451.631 18.0269 449.61 22.3296C447.589 26.6323 446.578 31.7826 446.578 37.7803C446.578 43.7129 447.589 48.8305 449.61 53.1333C451.631 57.436 454.466 60.7609 458.117 63.1078C461.833 65.4547 466.169 66.6282 471.123 66.6282Z" fill="#000033"/>
<path d="M219.707 184.831V116.672H229.29L252.564 172.999H251.293L274.664 116.672H284.052V184.831H277.696V124.006L278.087 124.104L255.106 179.159H248.75L225.672 124.104L226.063 124.006V184.831H219.707Z" fill="#000033"/>
<path d="M293.22 184.831V116.672H337.812V122.442H299.576V147.28H333.9V153.05H299.576V179.062H337.812V184.831H293.22Z" fill="#000033"/>
<path d="M346.98 184.831V116.672H353.923L390.496 176.617H389.225V116.672H395.581V184.831H388.442L352.065 124.788H353.336V184.831H346.98Z" fill="#000033"/>
<path d="M404.749 184.831V116.672H423.133C434.151 116.672 442.691 119.703 448.754 125.766C454.882 131.764 457.946 140.272 457.946 151.289C457.946 162.111 454.915 170.424 448.852 176.226C442.854 181.963 434.248 184.831 423.035 184.831H404.749ZM411.105 178.964H422.449C428.642 178.964 433.89 177.986 438.193 176.03C442.495 174.074 445.755 171.043 447.972 166.936C450.253 162.829 451.394 157.548 451.394 151.094C451.394 144.64 450.253 139.294 447.972 135.056C445.755 130.819 442.528 127.69 438.29 125.669C434.053 123.582 428.968 122.539 423.035 122.539H411.105V178.964Z" fill="#000033"/>
<path d="M467.114 184.831V116.672H511.706V122.442H473.47V147.28H507.794V153.05H473.47V179.062H511.706V184.831H467.114Z" fill="#000033"/>
<path d="M544.93 185.76C538.28 185.76 532.836 184.033 528.599 180.577C524.361 177.122 521.786 172.526 520.874 166.789L527.132 165.224C527.914 170.049 529.903 173.732 533.097 176.275C536.357 178.752 540.366 179.991 545.125 179.991C547.929 179.991 550.439 179.436 552.655 178.328C554.937 177.22 556.73 175.655 558.034 173.634C559.337 171.613 559.989 169.299 559.989 166.691C559.989 163.888 559.24 161.639 557.74 159.944C556.241 158.184 554.252 156.684 551.775 155.445C549.298 154.207 546.494 153.001 543.365 151.827C539.845 150.458 536.683 148.991 533.88 147.427C531.076 145.797 528.86 143.841 527.23 141.559C525.665 139.278 524.883 136.442 524.883 133.052C524.883 129.662 525.698 126.695 527.328 124.153C528.957 121.545 531.239 119.492 534.173 117.992C537.172 116.493 540.627 115.743 544.539 115.743C548.711 115.743 552.394 116.688 555.589 118.579C558.783 120.469 561.358 123.24 563.314 126.891L558.229 130.02C556.664 127.282 554.709 125.163 552.362 123.664C550.08 122.164 547.407 121.415 544.343 121.415C541.735 121.415 539.454 121.904 537.498 122.882C535.542 123.859 534.01 125.229 532.902 126.989C531.793 128.684 531.239 130.64 531.239 132.856C531.239 135.203 531.859 137.191 533.097 138.821C534.401 140.451 536.226 141.853 538.573 143.026C540.986 144.2 543.789 145.373 546.983 146.547C550.765 147.981 554.089 149.546 556.958 151.241C559.892 152.87 562.173 154.891 563.803 157.303C565.433 159.716 566.248 162.714 566.248 166.3C566.248 170.081 565.335 173.439 563.51 176.372C561.684 179.306 559.174 181.62 555.98 183.315C552.786 184.945 549.102 185.76 544.93 185.76Z" fill="#000033"/>
<path d="M556.622 70.6529V2.49363H562.978V32.9061H598.965V2.49363H605.419V70.6529H598.965V38.8713H562.978V70.6529H556.622Z" fill="#000033"/>
<path d="M614.586 70.6529V2.49363H659.178V8.2632H620.943V33.1017H655.267V38.8713H620.943V64.8833H659.178V70.6529H614.586Z" fill="#000033"/>
<path d="M668.346 70.6529V2.49363H675.289L711.862 62.4385H710.591V2.49363H716.948V70.6529H709.809L673.431 10.6101H674.702V70.6529H668.346Z" fill="#000033"/>
<path d="M726.115 70.6529V2.49363H745.282C750.302 2.49363 754.442 3.24335 757.701 4.74278C761.026 6.24222 763.503 8.39359 765.133 11.1969C766.828 14.0002 767.676 17.3902 767.676 21.367C767.676 26.778 766.111 31.0807 762.982 34.2752C759.853 37.4696 755.322 39.3928 749.389 40.0448C748.476 40.11 747.368 40.1752 746.064 40.2403C744.826 40.2403 743.62 40.2403 742.446 40.2403H732.472V70.6529H726.115ZM764.84 70.6529L746.749 39.3602L753.301 38.4801L772.174 70.6529H764.84ZM732.472 34.5686H744.597C748.053 34.5686 751.019 34.1122 753.496 33.1995C755.974 32.2216 757.864 30.7874 759.168 28.8968C760.537 26.941 761.222 24.4311 761.222 21.367C761.222 18.3029 760.537 15.8256 759.168 13.935C757.799 11.9792 755.876 10.545 753.398 9.63226C750.921 8.71956 747.988 8.2632 744.597 8.2632H732.472V34.5686Z" fill="#000033"/>
<path d="M781.342 70.6529V2.49363H787.698V70.6529H781.342Z" fill="#000033"/>
<path d="M827.767 70.115C821.639 70.115 816.228 68.6808 811.534 65.8123C806.906 62.8786 803.287 58.7714 800.68 53.4908C798.137 48.2102 796.866 42.082 796.866 35.1064C796.866 28.0656 798.137 21.9048 800.68 16.6242C803.287 11.3436 806.906 7.26901 811.534 4.40052C816.228 1.46684 821.639 0 827.767 0C834.091 0 839.567 1.46684 844.196 4.40052C848.89 7.26901 852.508 11.3436 855.051 16.6242C857.658 21.9048 858.962 28.0656 858.962 35.1064C858.962 42.1472 857.658 48.308 855.051 53.5886C852.443 58.804 848.792 62.8786 844.098 65.8123C839.47 68.6808 834.026 70.115 827.767 70.115ZM857.006 73.1465L831.288 47.9168L835.102 43.9075L860.918 69.3327L857.006 73.1465ZM827.767 63.9543C832.852 63.9543 837.22 62.7808 840.871 60.4339C844.587 58.0869 847.456 54.7621 849.477 50.4593C851.498 46.0914 852.508 40.9738 852.508 35.1064C852.508 29.1738 851.498 24.0562 849.477 19.7535C847.456 15.3855 844.587 12.0281 840.871 9.68115C837.22 7.3342 832.852 6.16073 827.767 6.16073C822.813 6.16073 818.477 7.3342 814.761 9.68115C811.111 12.0281 808.275 15.3529 806.254 19.6557C804.233 23.9584 803.222 29.1087 803.222 35.1064C803.222 41.039 804.233 46.1566 806.254 50.4593C808.275 54.7621 811.111 58.0869 814.761 60.4339C818.477 62.7808 822.813 63.9543 827.767 63.9543Z" fill="#000033"/>
<path d="M894.338 71.1418C886.514 71.1418 880.517 68.9578 876.344 64.5899C872.172 60.222 870.086 53.8657 870.086 45.521V2.00469H876.442V44.8365C876.442 49.2696 877.061 53.0182 878.3 56.0822C879.539 59.0811 881.462 61.3629 884.07 62.9275C886.743 64.4269 890.165 65.1767 894.338 65.1767C898.445 65.1767 901.835 64.3943 904.508 62.8297C907.181 61.1999 909.169 58.8855 910.473 55.8867C911.777 52.8226 912.429 49.074 912.429 44.6409V2.00469H918.687V45.032C918.687 53.5071 916.601 59.9938 912.429 64.4921C908.256 68.9252 902.226 71.1418 894.338 71.1418Z" fill="#000033"/>
<path d="M927.855 70.6529V2.49363H972.447V8.2632H934.211V33.1017H968.535V38.8713H934.211V64.8833H972.447V70.6529H927.855Z" fill="#000033"/>
<path d="M625.198 143.299C623.529 143.299 622.06 142.888 620.79 142.066C619.545 141.219 618.573 140.074 617.876 138.63C617.179 137.185 616.83 135.567 616.83 133.774C616.83 131.831 617.204 130.15 617.951 128.731C618.698 127.311 619.707 126.216 620.977 125.444C622.247 124.672 623.654 124.286 625.198 124.286C626.368 124.286 627.414 124.522 628.335 124.995C629.257 125.444 630.029 126.066 630.651 126.863C631.299 127.635 631.747 128.507 631.996 129.478L631.099 130.076V116.964H634.237V143H631.099V137.509L632.145 137.845C631.822 138.916 631.336 139.862 630.689 140.684C630.041 141.506 629.257 142.153 628.335 142.626C627.414 143.075 626.368 143.299 625.198 143.299ZM625.721 140.385C626.841 140.385 627.825 140.111 628.672 139.563C629.518 138.991 630.178 138.206 630.651 137.21C631.124 136.214 631.361 135.069 631.361 133.774C631.361 132.479 631.124 131.333 630.651 130.337C630.178 129.341 629.518 128.569 628.672 128.021C627.825 127.448 626.841 127.162 625.721 127.162C624.6 127.162 623.604 127.448 622.732 128.021C621.886 128.569 621.213 129.341 620.715 130.337C620.242 131.333 620.005 132.479 620.005 133.774C620.005 135.069 620.242 136.214 620.715 137.21C621.213 138.206 621.886 138.991 622.732 139.563C623.604 140.111 624.6 140.385 625.721 140.385Z" fill="#000033"/>
<path d="M647.383 143.299C645.938 143.299 644.668 143.062 643.572 142.589C642.502 142.091 641.605 141.406 640.883 140.535C640.186 139.663 639.65 138.667 639.277 137.546C638.928 136.401 638.754 135.193 638.754 133.923C638.754 132.653 638.928 131.445 639.277 130.3C639.625 129.129 640.136 128.096 640.808 127.199C641.506 126.303 642.377 125.593 643.423 125.07C644.469 124.547 645.689 124.286 647.084 124.286C648.503 124.286 649.723 124.535 650.744 125.033C651.79 125.506 652.637 126.166 653.284 127.013C653.957 127.859 654.455 128.806 654.779 129.851C655.102 130.897 655.264 131.981 655.264 133.101C655.264 133.201 655.252 133.437 655.227 133.811C655.227 134.16 655.202 134.471 655.152 134.745H641.892C641.966 136.538 642.489 137.932 643.46 138.928C644.432 139.925 645.751 140.423 647.42 140.423C648.491 140.423 649.425 140.248 650.221 139.9C651.018 139.551 651.765 138.991 652.463 138.219L654.667 140.161C653.994 140.883 653.284 141.481 652.537 141.954C651.79 142.402 650.993 142.739 650.147 142.963C649.325 143.187 648.404 143.299 647.383 143.299ZM652.126 133.139C652.176 132.939 652.201 132.74 652.201 132.541C652.226 132.342 652.239 132.142 652.239 131.943C652.239 131.346 652.126 130.748 651.902 130.15C651.703 129.553 651.392 129.017 650.969 128.544C650.57 128.046 650.047 127.66 649.4 127.386C648.777 127.087 648.03 126.938 647.158 126.938C646.088 126.938 645.166 127.187 644.394 127.685C643.622 128.183 643.025 128.843 642.601 129.665C642.178 130.486 641.929 131.395 641.854 132.392H653.172L652.126 133.139Z" fill="#000033"/>
<path d="M665.874 143.299C664.629 143.299 663.508 143.112 662.512 142.739C661.516 142.365 660.657 141.867 659.935 141.244C659.238 140.622 658.677 139.962 658.254 139.265L660.458 137.397C660.931 138.343 661.628 139.128 662.55 139.75C663.496 140.348 664.617 140.647 665.911 140.647C667.082 140.647 668.016 140.398 668.713 139.9C669.41 139.402 669.759 138.729 669.759 137.883C669.759 137.185 669.547 136.637 669.124 136.239C668.701 135.841 668.14 135.517 667.443 135.268C666.746 135.019 665.986 134.795 665.164 134.595C664.467 134.421 663.757 134.209 663.035 133.96C662.338 133.711 661.703 133.4 661.13 133.027C660.557 132.653 660.097 132.167 659.748 131.57C659.399 130.972 659.225 130.237 659.225 129.366C659.225 127.847 659.81 126.627 660.981 125.705C662.176 124.759 663.733 124.286 665.65 124.286C667.045 124.286 668.315 124.585 669.46 125.182C670.631 125.755 671.539 126.627 672.187 127.797L670.17 129.291C669.672 128.42 669.012 127.797 668.19 127.423C667.393 127.025 666.509 126.826 665.538 126.826C664.567 126.826 663.757 127.025 663.11 127.423C662.462 127.822 662.139 128.37 662.139 129.067C662.139 129.59 662.288 130.013 662.587 130.337C662.886 130.661 663.322 130.935 663.894 131.159C664.492 131.383 665.214 131.595 666.061 131.794C666.833 131.968 667.617 132.18 668.414 132.429C669.211 132.678 669.946 133.002 670.618 133.4C671.29 133.799 671.826 134.334 672.224 135.006C672.648 135.654 672.859 136.5 672.859 137.546C672.859 138.692 672.573 139.7 672 140.572C671.427 141.444 670.618 142.116 669.572 142.589C668.526 143.062 667.294 143.299 665.874 143.299Z" fill="#000033"/>
<path d="M677.294 143V124.585H680.432V143H677.294ZM676.995 121.26V116.964H680.731V121.26H676.995Z" fill="#000033"/>
<path d="M693.191 150.956C690.552 150.956 688.46 150.471 686.916 149.5C685.372 148.528 684.6 147.184 684.6 145.465C684.6 145.341 684.6 145.179 684.6 144.98C684.625 144.781 684.662 144.594 684.712 144.419L689.307 141.095L690.39 141.842L687.775 145.092C687.75 145.191 687.738 145.279 687.738 145.353C687.738 145.428 687.738 145.503 687.738 145.577C687.738 146.574 688.261 147.308 689.307 147.781C690.353 148.279 691.647 148.528 693.191 148.528C694.561 148.528 695.694 148.329 696.591 147.931C697.487 147.557 697.935 146.935 697.935 146.063C697.935 145.565 697.786 145.154 697.487 144.83C697.213 144.531 696.802 144.295 696.254 144.121C695.732 143.946 695.109 143.797 694.387 143.672C693.665 143.548 692.855 143.423 691.959 143.299C690.838 143.125 689.742 142.875 688.672 142.552C687.626 142.228 686.754 141.755 686.057 141.132C685.385 140.51 685.048 139.688 685.048 138.667C685.048 137.795 685.347 136.998 685.945 136.276C686.567 135.554 687.377 134.956 688.373 134.483L690.39 135.791C689.543 135.99 688.946 136.301 688.597 136.725C688.248 137.123 688.074 137.609 688.074 138.181C688.074 138.654 688.236 139.04 688.56 139.339C688.908 139.638 689.394 139.875 690.016 140.049C690.664 140.198 691.436 140.335 692.332 140.46C693.528 140.634 694.648 140.821 695.694 141.02C696.74 141.219 697.661 141.506 698.458 141.879C699.28 142.228 699.915 142.701 700.363 143.299C700.812 143.921 701.036 144.718 701.036 145.689C701.036 147.383 700.338 148.678 698.944 149.574C697.549 150.496 695.632 150.956 693.191 150.956ZM692.743 137.248C691.324 137.248 690.066 136.974 688.97 136.426C687.875 135.878 687.016 135.118 686.393 134.147C685.795 133.176 685.497 132.068 685.497 130.823C685.497 129.528 685.808 128.395 686.43 127.423C687.078 126.427 687.937 125.655 689.008 125.108C690.104 124.56 691.311 124.286 692.631 124.286C693.926 124.286 695.109 124.56 696.18 125.108C697.251 125.655 698.11 126.427 698.757 127.423C699.405 128.42 699.728 129.59 699.728 130.935C699.728 132.205 699.43 133.313 698.832 134.259C698.234 135.205 697.412 135.94 696.367 136.463C695.321 136.986 694.113 137.248 692.743 137.248ZM692.668 134.67C693.914 134.67 694.872 134.297 695.545 133.549C696.242 132.778 696.591 131.844 696.591 130.748C696.591 129.578 696.23 128.631 695.507 127.909C694.785 127.187 693.839 126.826 692.668 126.826C691.473 126.826 690.502 127.199 689.755 127.946C689.008 128.669 688.634 129.59 688.634 130.711C688.634 131.831 688.995 132.778 689.718 133.549C690.44 134.297 691.423 134.67 692.668 134.67ZM698.533 128.021L696.254 126.49L700.139 123.277L701.745 125.257L698.533 128.021Z" fill="#000033"/>
<path d="M704.946 143V124.585H708.121V128.507L707.374 128.768C707.722 127.822 708.195 127.025 708.793 126.378C709.391 125.705 710.113 125.195 710.96 124.846C711.806 124.473 712.74 124.286 713.761 124.286C715.778 124.286 717.36 124.883 718.505 126.079C719.651 127.249 720.223 128.992 720.223 131.308V143H717.048V132.466C717.048 130.599 716.7 129.229 716.002 128.357C715.33 127.461 714.297 127.013 712.902 127.013C711.881 127.013 711.009 127.249 710.287 127.722C709.59 128.195 709.055 128.943 708.681 129.964C708.307 130.96 708.121 132.242 708.121 133.811V143H704.946Z" fill="#000033"/>
<path d="M733.143 143.299C731.699 143.299 730.429 143.062 729.333 142.589C728.262 142.091 727.366 141.406 726.643 140.535C725.946 139.663 725.411 138.667 725.037 137.546C724.689 136.401 724.514 135.193 724.514 133.923C724.514 132.653 724.689 131.445 725.037 130.3C725.386 129.129 725.896 128.096 726.569 127.199C727.266 126.303 728.138 125.593 729.184 125.07C730.23 124.547 731.45 124.286 732.844 124.286C734.264 124.286 735.484 124.535 736.505 125.033C737.551 125.506 738.398 126.166 739.045 127.013C739.717 127.859 740.215 128.806 740.539 129.851C740.863 130.897 741.025 131.981 741.025 133.101C741.025 133.201 741.012 133.437 740.987 133.811C740.987 134.16 740.962 134.471 740.913 134.745H727.652C727.727 136.538 728.25 137.932 729.221 138.928C730.192 139.925 731.512 140.423 733.18 140.423C734.251 140.423 735.185 140.248 735.982 139.9C736.779 139.551 737.526 138.991 738.223 138.219L740.427 140.161C739.755 140.883 739.045 141.481 738.298 141.954C737.551 142.402 736.754 142.739 735.907 142.963C735.085 143.187 734.164 143.299 733.143 143.299ZM737.887 133.139C737.937 132.939 737.962 132.74 737.962 132.541C737.987 132.342 737.999 132.142 737.999 131.943C737.999 131.346 737.887 130.748 737.663 130.15C737.464 129.553 737.152 129.017 736.729 128.544C736.331 128.046 735.808 127.66 735.16 127.386C734.538 127.087 733.791 126.938 732.919 126.938C731.848 126.938 730.927 127.187 730.155 127.685C729.383 128.183 728.785 128.843 728.362 129.665C727.938 130.486 727.689 131.395 727.615 132.392H738.933L737.887 133.139Z" fill="#000033"/>
<path d="M745.546 143V124.585H748.721V129.515L747.899 129.702C748.074 128.606 748.484 127.66 749.132 126.863C749.804 126.041 750.576 125.406 751.448 124.958C752.344 124.51 753.216 124.286 754.063 124.286C754.635 124.286 755.183 124.348 755.706 124.473C756.229 124.597 756.765 124.809 757.312 125.108L755.744 127.946C755.445 127.797 755.084 127.672 754.66 127.573C754.262 127.473 753.876 127.423 753.502 127.423C752.905 127.423 752.307 127.536 751.709 127.76C751.137 127.984 750.614 128.332 750.141 128.806C749.667 129.279 749.306 129.914 749.057 130.711C748.958 131.059 748.87 131.52 748.796 132.093C748.746 132.641 748.721 133.4 748.721 134.371V143H745.546Z" fill="#000033"/>
<path d="M777.969 143.299C776.3 143.299 774.831 142.888 773.561 142.066C772.316 141.219 771.345 140.074 770.647 138.63C769.95 137.185 769.602 135.567 769.602 133.774C769.602 131.831 769.975 130.15 770.722 128.731C771.469 127.311 772.478 126.216 773.748 125.444C775.018 124.672 776.425 124.286 777.969 124.286C779.139 124.286 780.185 124.522 781.107 124.995C782.028 125.444 782.8 126.066 783.422 126.863C784.07 127.635 784.518 128.507 784.767 129.478L783.871 130.076V116.964H787.008V143H783.871V137.509L784.917 137.845C784.593 138.916 784.107 139.862 783.46 140.684C782.812 141.506 782.028 142.153 781.107 142.626C780.185 143.075 779.139 143.299 777.969 143.299ZM778.492 140.385C779.612 140.385 780.596 140.111 781.443 139.563C782.289 138.991 782.949 138.206 783.422 137.21C783.896 136.214 784.132 135.069 784.132 133.774C784.132 132.479 783.896 131.333 783.422 130.337C782.949 129.341 782.289 128.569 781.443 128.021C780.596 127.448 779.612 127.162 778.492 127.162C777.371 127.162 776.375 127.448 775.503 128.021C774.657 128.569 773.984 129.341 773.486 130.337C773.013 131.333 772.777 132.479 772.777 133.774C772.777 135.069 773.013 136.214 773.486 137.21C773.984 138.206 774.657 138.991 775.503 139.563C776.375 140.111 777.371 140.385 778.492 140.385Z" fill="#000033"/>
<path d="M800.154 143.299C798.709 143.299 797.439 143.062 796.344 142.589C795.273 142.091 794.376 141.406 793.654 140.535C792.957 139.663 792.422 138.667 792.048 137.546C791.699 136.401 791.525 135.193 791.525 133.923C791.525 132.653 791.699 131.445 792.048 130.3C792.397 129.129 792.907 128.096 793.579 127.199C794.277 126.303 795.148 125.593 796.194 125.07C797.24 124.547 798.46 124.286 799.855 124.286C801.274 124.286 802.495 124.535 803.516 125.033C804.561 125.506 805.408 126.166 806.056 127.013C806.728 127.859 807.226 128.806 807.55 129.851C807.874 130.897 808.035 131.981 808.035 133.101C808.035 133.201 808.023 133.437 807.998 133.811C807.998 134.16 807.973 134.471 807.923 134.745H794.663C794.737 136.538 795.26 137.932 796.232 138.928C797.203 139.925 798.523 140.423 800.191 140.423C801.262 140.423 802.196 140.248 802.993 139.9C803.789 139.551 804.537 138.991 805.234 138.219L807.438 140.161C806.765 140.883 806.056 141.481 805.309 141.954C804.562 142.402 803.765 142.739 802.918 142.963C802.096 143.187 801.175 143.299 800.154 143.299ZM804.898 133.139C804.948 132.939 804.972 132.74 804.972 132.541C804.997 132.342 805.01 132.142 805.01 131.943C805.01 131.346 804.898 130.748 804.674 130.15C804.474 129.553 804.163 129.017 803.74 128.544C803.341 128.046 802.818 127.66 802.171 127.386C801.548 127.087 800.801 126.938 799.93 126.938C798.859 126.938 797.937 127.187 797.165 127.685C796.393 128.183 795.796 128.843 795.372 129.665C794.949 130.486 794.7 131.395 794.625 132.392H805.944L804.898 133.139Z" fill="#000033"/>
<path d="M617.652 180V161.585H620.79V180H617.652ZM617.353 158.26V153.964H621.089V158.26H617.353Z" fill="#000033"/>
<path d="M626.116 180V161.585H629.291V165.507L628.544 165.768C628.893 164.822 629.366 164.025 629.963 163.378C630.561 162.705 631.283 162.195 632.13 161.846C632.977 161.473 633.91 161.286 634.931 161.286C636.949 161.286 638.53 161.883 639.675 163.079C640.821 164.249 641.394 165.992 641.394 168.308V180H638.219V169.466C638.219 167.599 637.87 166.229 637.173 165.357C636.5 164.461 635.467 164.013 634.072 164.013C633.051 164.013 632.18 164.249 631.458 164.722C630.76 165.195 630.225 165.943 629.851 166.964C629.478 167.96 629.291 169.242 629.291 170.811V180H626.116Z" fill="#000033"/>
<path d="M652.67 180.299C651.798 180.299 651.001 180.137 650.279 179.813C649.582 179.465 649.034 178.917 648.636 178.17C648.237 177.423 648.038 176.464 648.038 175.293V156.654L651.25 154.861V174.472C651.25 175.493 651.412 176.29 651.736 176.862C652.06 177.41 652.645 177.684 653.492 177.684C653.741 177.684 654.039 177.659 654.388 177.609C654.737 177.535 655.11 177.447 655.509 177.348V179.813C655.036 179.988 654.55 180.112 654.052 180.187C653.579 180.261 653.118 180.299 652.67 180.299ZM644.228 164.05V161.585H655.509V164.05H644.228Z" fill="#000033"/>
<path d="M666.862 180.299C665.418 180.299 664.148 180.062 663.052 179.589C661.981 179.091 661.085 178.406 660.362 177.535C659.665 176.663 659.13 175.667 658.756 174.546C658.408 173.401 658.233 172.193 658.233 170.923C658.233 169.653 658.408 168.445 658.756 167.3C659.105 166.129 659.615 165.096 660.288 164.199C660.985 163.303 661.857 162.593 662.902 162.07C663.948 161.547 665.169 161.286 666.563 161.286C667.983 161.286 669.203 161.535 670.224 162.033C671.27 162.506 672.116 163.166 672.764 164.013C673.436 164.859 673.934 165.806 674.258 166.851C674.582 167.897 674.744 168.981 674.744 170.101C674.744 170.201 674.731 170.437 674.706 170.811C674.706 171.16 674.681 171.471 674.632 171.745H661.371C661.446 173.538 661.969 174.932 662.94 175.928C663.911 176.925 665.231 177.423 666.899 177.423C667.97 177.423 668.904 177.248 669.701 176.9C670.498 176.551 671.245 175.991 671.942 175.219L674.146 177.161C673.474 177.883 672.764 178.481 672.017 178.954C671.27 179.402 670.473 179.739 669.626 179.963C668.804 180.187 667.883 180.299 666.862 180.299ZM671.606 170.139C671.656 169.939 671.681 169.74 671.681 169.541C671.706 169.342 671.718 169.142 671.718 168.943C671.718 168.346 671.606 167.748 671.382 167.15C671.183 166.553 670.871 166.017 670.448 165.544C670.049 165.046 669.527 164.66 668.879 164.386C668.257 164.087 667.509 163.938 666.638 163.938C665.567 163.938 664.646 164.187 663.874 164.685C663.102 165.183 662.504 165.843 662.081 166.665C661.657 167.486 661.408 168.395 661.334 169.392H672.652L671.606 170.139Z" fill="#000033"/>
<path d="M679.265 180V161.585H682.44V166.515L681.618 166.702C681.792 165.606 682.203 164.66 682.851 163.863C683.523 163.041 684.295 162.406 685.167 161.958C686.063 161.51 686.935 161.286 687.782 161.286C688.354 161.286 688.902 161.348 689.425 161.473C689.948 161.597 690.483 161.809 691.031 162.108L689.462 164.946C689.164 164.797 688.803 164.672 688.379 164.573C687.981 164.473 687.595 164.423 687.221 164.423C686.624 164.423 686.026 164.536 685.428 164.76C684.856 164.984 684.333 165.332 683.859 165.806C683.386 166.279 683.025 166.914 682.776 167.711C682.677 168.059 682.589 168.52 682.515 169.093C682.465 169.641 682.44 170.4 682.44 171.371V180H679.265Z" fill="#000033"/>
<path d="M695.971 180V164.05H692.16V161.585H696.008V159.194C696.008 157.799 696.232 156.704 696.68 155.907C697.128 155.085 697.739 154.512 698.511 154.189C699.307 153.84 700.191 153.666 701.163 153.666C701.835 153.666 702.433 153.728 702.956 153.852C703.479 153.977 703.977 154.164 704.45 154.413L703.404 156.803C703.13 156.654 702.831 156.542 702.507 156.467C702.184 156.367 701.847 156.318 701.499 156.318C700.702 156.318 700.104 156.567 699.706 157.065C699.332 157.563 699.146 158.273 699.146 159.194V161.585H703.441V164.05H699.146V180H695.971Z" fill="#000033"/>
<path d="M719.091 180L718.867 176.302V168.458C718.867 167.038 718.468 165.943 717.672 165.171C716.9 164.399 715.742 164.013 714.198 164.013C713.202 164.013 712.268 164.224 711.396 164.648C710.525 165.046 709.678 165.731 708.856 166.702L706.578 164.76C707.599 163.564 708.769 162.693 710.089 162.145C711.409 161.572 712.853 161.286 714.422 161.286C716.837 161.286 718.705 161.908 720.025 163.153C721.345 164.399 722.005 166.167 722.005 168.458V180H719.091ZM713.002 180.299C711.608 180.299 710.388 180.062 709.342 179.589C708.321 179.091 707.524 178.406 706.951 177.535C706.403 176.663 706.129 175.655 706.129 174.509C706.129 173.488 706.328 172.629 706.727 171.932C707.15 171.209 707.686 170.649 708.333 170.251C708.981 169.827 709.715 169.541 710.537 169.392C711.384 169.217 712.268 169.13 713.189 169.13H719.166V171.521H713.637C713.09 171.521 712.517 171.57 711.919 171.67C711.321 171.77 710.799 171.981 710.35 172.305C710.027 172.554 709.765 172.865 709.566 173.239C709.391 173.612 709.304 174.048 709.304 174.546C709.304 175.518 709.665 176.29 710.388 176.862C711.11 177.435 712.081 177.721 713.301 177.721C714.322 177.721 715.244 177.485 716.065 177.012C716.912 176.539 717.584 175.891 718.082 175.069C718.605 174.223 718.867 173.276 718.867 172.23L720.174 173.575C720.025 174.895 719.626 176.065 718.979 177.086C718.332 178.107 717.497 178.904 716.476 179.477C715.48 180.025 714.322 180.299 713.002 180.299Z" fill="#000033"/>
<path d="M734.818 180.299C733.449 180.299 732.229 180.05 731.158 179.552C730.112 179.054 729.228 178.369 728.506 177.497C727.784 176.601 727.236 175.58 726.862 174.434C726.489 173.289 726.302 172.069 726.302 170.774C726.302 169.504 726.489 168.296 726.862 167.15C727.236 166.005 727.784 164.996 728.506 164.125C729.228 163.228 730.112 162.531 731.158 162.033C732.229 161.535 733.449 161.286 734.818 161.286C736.562 161.286 738.081 161.709 739.376 162.556C740.695 163.402 741.667 164.697 742.289 166.441L739.488 167.524C739.139 166.478 738.579 165.631 737.807 164.984C737.035 164.336 736.039 164.013 734.818 164.013C733.598 164.013 732.59 164.336 731.793 164.984C730.996 165.631 730.398 166.465 730 167.486C729.626 168.507 729.44 169.603 729.44 170.774C729.44 171.944 729.626 173.052 730 174.098C730.398 175.119 730.996 175.953 731.793 176.601C732.59 177.223 733.598 177.535 734.818 177.535C736.039 177.535 737.035 177.223 737.807 176.601C738.579 175.953 739.139 175.094 739.488 174.023L742.289 175.107C741.667 176.85 740.695 178.157 739.376 179.029C738.081 179.875 736.562 180.299 734.818 180.299Z" fill="#000033"/>
<path d="M754.264 180.299C752.82 180.299 751.55 180.062 750.454 179.589C749.383 179.091 748.487 178.406 747.764 177.535C747.067 176.663 746.532 175.667 746.158 174.546C745.81 173.401 745.635 172.193 745.635 170.923C745.635 169.653 745.81 168.445 746.158 167.3C746.507 166.129 747.017 165.096 747.69 164.199C748.387 163.303 749.259 162.593 750.305 162.07C751.35 161.547 752.571 161.286 753.965 161.286C755.385 161.286 756.605 161.535 757.626 162.033C758.672 162.506 759.518 163.166 760.166 164.013C760.838 164.859 761.336 165.806 761.66 166.851C761.984 167.897 762.146 168.981 762.146 170.101C762.146 170.201 762.133 170.437 762.108 170.811C762.108 171.16 762.083 171.471 762.034 171.745H748.773C748.848 173.538 749.371 174.932 750.342 175.928C751.313 176.925 752.633 177.423 754.301 177.423C755.372 177.423 756.306 177.248 757.103 176.9C757.9 176.551 758.647 175.991 759.344 175.219L761.548 177.161C760.876 177.883 760.166 178.481 759.419 178.954C758.672 179.402 757.875 179.739 757.028 179.963C756.206 180.187 755.285 180.299 754.264 180.299ZM759.008 170.139C759.058 169.939 759.083 169.74 759.083 169.541C759.108 169.342 759.12 169.142 759.12 168.943C759.12 168.346 759.008 167.748 758.784 167.15C758.585 166.553 758.273 166.017 757.85 165.544C757.452 165.046 756.929 164.66 756.281 164.386C755.659 164.087 754.912 163.938 754.04 163.938C752.969 163.938 752.048 164.187 751.276 164.685C750.504 165.183 749.906 165.843 749.483 166.665C749.059 167.486 748.81 168.395 748.736 169.392H760.054L759.008 170.139Z" fill="#000033"/>
<path d="M772.756 180.299C771.51 180.299 770.39 180.112 769.394 179.739C768.398 179.365 767.539 178.867 766.816 178.244C766.119 177.622 765.559 176.962 765.135 176.265L767.339 174.397C767.812 175.343 768.51 176.128 769.431 176.75C770.377 177.348 771.498 177.647 772.793 177.647C773.963 177.647 774.897 177.398 775.594 176.9C776.292 176.402 776.64 175.729 776.64 174.883C776.64 174.185 776.429 173.637 776.005 173.239C775.582 172.841 775.022 172.517 774.324 172.268C773.627 172.019 772.868 171.795 772.046 171.595C771.349 171.421 770.639 171.209 769.917 170.96C769.219 170.711 768.584 170.4 768.012 170.027C767.439 169.653 766.978 169.167 766.63 168.57C766.281 167.972 766.107 167.237 766.107 166.366C766.107 164.847 766.692 163.627 767.862 162.705C769.058 161.759 770.614 161.286 772.531 161.286C773.926 161.286 775.196 161.585 776.342 162.182C777.512 162.755 778.421 163.627 779.068 164.797L777.051 166.291C776.553 165.42 775.893 164.797 775.072 164.423C774.275 164.025 773.391 163.826 772.419 163.826C771.448 163.826 770.639 164.025 769.991 164.423C769.344 164.822 769.02 165.37 769.02 166.067C769.02 166.59 769.17 167.013 769.468 167.337C769.767 167.661 770.203 167.935 770.776 168.159C771.374 168.383 772.096 168.595 772.942 168.794C773.714 168.968 774.499 169.18 775.296 169.429C776.093 169.678 776.827 170.002 777.5 170.4C778.172 170.799 778.707 171.334 779.106 172.006C779.529 172.654 779.741 173.5 779.741 174.546C779.741 175.692 779.454 176.7 778.882 177.572C778.309 178.444 777.5 179.116 776.454 179.589C775.408 180.062 774.175 180.299 772.756 180.299Z" fill="#000033"/>
</svg>
